<?xml version="1.0" standalone="no"?><!DOCTYPE svg PUBLIC "-//W3C//DTD SVG 1.1//EN" "http://www.w3.org/Graphics/SVG/1.1/DTD/svg11.dtd"><svg t="1499935260863" class="icon" style="" viewBox="0 0 1024 1024" version="1.1" xmlns="http://www.w3.org/2000/svg" p-id="3336" xmlns:xlink="http://www.w3.org/1999/xlink" width="16" height="16"><defs><style type="text/css"></style></defs><path d="M21.333333 0v1024" fill="#d81e06" p-id="3337"></path><path d="M42.666667 0v1024" fill="#d81e06" p-id="3338"></path><path d="M64 0v1024" fill="#d81e06" p-id="3339"></path><path d="M85.333333 0v1024" fill="#d81e06" p-id="3340"></path><path d="M106.666667 0v1024" fill="#d81e06" p-id="3341"></path><path d="M128 0v1024" fill="#d81e06" p-id="3342"></path><path d="M149.333333 0v1024" fill="#d81e06" p-id="3343"></path><path d="M170.666667 0v1024" fill="#d81e06" p-id="3344"></path><path d="M192 0v1024" fill="#d81e06" p-id="3345"></path><path d="M213.333333 0v1024" fill="#d81e06" p-id="3346"></path><path d="M234.666667 0v1024" fill="#d81e06" p-id="3347"></path><path d="M256 0v1024" fill="#d81e06" p-id="3348"></path><path d="M277.333333 0v1024" fill="#d81e06" p-id="3349"></path><path d="M298.666667 0v1024" fill="#d81e06" p-id="3350"></path><path d="M320 0v1024" fill="#d81e06" p-id="3351"></path><path d="M341.333333 0v1024" fill="#d81e06" p-id="3352"></path><path d="M362.666667 0v1024" fill="#d81e06" p-id="3353"></path><path d="M384 0v1024" fill="#d81e06" p-id="3354"></path><path d="M405.333333 0v1024" fill="#d81e06" p-id="3355"></path><path d="M426.666667 0v1024" fill="#d81e06" p-id="3356"></path><path d="M448 0v1024" fill="#d81e06" p-id="3357"></path><path d="M469.333333 0v1024" fill="#d81e06" p-id="3358"></path><path d="M490.666667 0v1024" fill="#d81e06" p-id="3359"></path><path d="M512 0v1024" fill="#d81e06" p-id="3360"></path><path d="M533.333333 0v1024" fill="#d81e06" p-id="3361"></path><path d="M554.666667 0v1024" fill="#d81e06" p-id="3362"></path><path d="M576 0v1024" fill="#d81e06" p-id="3363"></path><path d="M597.333333 0v1024" fill="#d81e06" p-id="3364"></path><path d="M618.666667 0v1024" fill="#d81e06" p-id="3365"></path><path d="M640 0v1024" fill="#d81e06" p-id="3366"></path><path d="M661.333333 0v1024" fill="#d81e06" p-id="3367"></path><path d="M682.666667 0v1024" fill="#d81e06" p-id="3368"></path><path d="M704 0v1024" fill="#d81e06" p-id="3369"></path><path d="M725.333333 0v1024" fill="#d81e06" p-id="3370"></path><path d="M746.666667 0v1024" fill="#d81e06" p-id="3371"></path><path d="M768 0v1024" fill="#d81e06" p-id="3372"></path><path d="M789.333333 0v1024" fill="#d81e06" p-id="3373"></path><path d="M810.666667 0v1024" fill="#d81e06" p-id="3374"></path><path d="M832 0v1024" fill="#d81e06" p-id="3375"></path><path d="M853.333333 0v1024" fill="#d81e06" p-id="3376"></path><path d="M874.666667 0v1024" fill="#d81e06" p-id="3377"></path><path d="M896 0v1024" fill="#d81e06" p-id="3378"></path><path d="M917.333333 0v1024" fill="#d81e06" p-id="3379"></path><path d="M938.666667 0v1024" fill="#d81e06" p-id="3380"></path><path d="M960 0v1024" fill="#d81e06" p-id="3381"></path><path d="M981.333333 0v1024" fill="#d81e06" p-id="3382"></path><path d="M1002.666667 0v1024M0 21.333333h1024" fill="#d81e06" p-id="3383"></path><path d="M0 42.666667h1024" fill="#d81e06" p-id="3384"></path><path d="M0 64h1024" fill="#d81e06" p-id="3385"></path><path d="M0 85.333333h1024" fill="#d81e06" p-id="3386"></path><path d="M0 106.666667h1024" fill="#d81e06" p-id="3387"></path><path d="M0 128h1024" fill="#d81e06" p-id="3388"></path><path d="M0 149.333333h1024" fill="#d81e06" p-id="3389"></path><path d="M0 170.666667h1024" fill="#d81e06" p-id="3390"></path><path d="M0 192h1024" fill="#d81e06" p-id="3391"></path><path d="M0 213.333333h1024" fill="#d81e06" p-id="3392"></path><path d="M0 234.666667h1024" fill="#d81e06" p-id="3393"></path><path d="M0 256h1024" fill="#d81e06" p-id="3394"></path><path d="M0 277.333333h1024" fill="#d81e06" p-id="3395"></path><path d="M0 298.666667h1024" fill="#d81e06" p-id="3396"></path><path d="M0 320h1024" fill="#d81e06" p-id="3397"></path><path d="M0 341.333333h1024" fill="#d81e06" p-id="3398"></path><path d="M0 362.666667h1024" fill="#d81e06" p-id="3399"></path><path d="M0 384h1024" fill="#d81e06" p-id="3400"></path><path d="M0 405.333333h1024" fill="#d81e06" p-id="3401"></path><path d="M0 426.666667h1024" fill="#d81e06" p-id="3402"></path><path d="M0 448h1024" fill="#d81e06" p-id="3403"></path><path d="M0 469.333333h1024" fill="#d81e06" p-id="3404"></path><path d="M0 490.666667h1024" fill="#d81e06" p-id="3405"></path><path d="M0 512h1024" fill="#d81e06" p-id="3406"></path><path d="M0 533.333333h1024" fill="#d81e06" p-id="3407"></path><path d="M0 554.666667h1024" fill="#d81e06" p-id="3408"></path><path d="M0 576h1024" fill="#d81e06" p-id="3409"></path><path d="M0 597.333333h1024" fill="#d81e06" p-id="3410"></path><path d="M0 618.666667h1024" fill="#d81e06" p-id="3411"></path><path d="M0 640h1024" fill="#d81e06" p-id="3412"></path><path d="M0 661.333333h1024" fill="#d81e06" p-id="3413"></path><path d="M0 682.666667h1024" fill="#d81e06" p-id="3414"></path><path d="M0 704h1024" fill="#d81e06" p-id="3415"></path><path d="M0 725.333333h1024" fill="#d81e06" p-id="3416"></path><path d="M0 746.666667h1024" fill="#d81e06" p-id="3417"></path><path d="M0 768h1024" fill="#d81e06" p-id="3418"></path><path d="M0 789.333333h1024" fill="#d81e06" p-id="3419"></path><path d="M0 810.666667h1024" fill="#d81e06" p-id="3420"></path><path d="M0 832h1024" fill="#d81e06" p-id="3421"></path><path d="M0 853.333333h1024" fill="#d81e06" p-id="3422"></path><path d="M0 874.666667h1024" fill="#d81e06" p-id="3423"></path><path d="M0 896h1024" fill="#d81e06" p-id="3424"></path><path d="M0 917.333333h1024" fill="#d81e06" p-id="3425"></path><path d="M0 938.666667h1024" fill="#d81e06" p-id="3426"></path><path d="M0 960h1024" fill="#d81e06" p-id="3427"></path><path d="M0 981.333333h1024" fill="#d81e06" p-id="3428"></path><path d="M0 1002.666667h1024" fill="#d81e06" p-id="3429"></path><path d="M810 274L572 512l238 238-60 60L512 572 274 810l-60-60L452 512 214 274l60-60L512 452l238-238z" fill="#d81e06" p-id="3430"></path></svg>